<?xml version="1.0" encoding="UTF-8"?>
<svg 
    version="1.1" 
    viewBox="100 230 950 300"
    xml:space="preserve"
    xmlns="http://www.w3.org/2000/svg"
    xmlns:cc="http://creativecommons.org/ns#"
    xmlns:dc="http://purl.org/dc/elements/1.1/"
    xmlns:rdf="http://www.w3.org/1999/02/22-rdf-syntax-ns#"
>
    <metadata>
        <rdf:RDF>
            <cc:Work rdf:about="">
                <dc:format>image/svg+xml</dc:format>
                <dc:type rdf:resource="http://purl.org/dc/dcmitype/StillImage"/>
            </cc:Work>
        </rdf:RDF>
    </metadata>
    <g transform="matrix(1.3333 0 0 -1.3333 0 781.4)">
        <g transform="scale(.1)">
            <path d="m912.84 2797h32.402c37.793 0 53.992 1.81 68.398 9.01v-183.6c37.79 126 129.59 189 242.99 189 100.79 0 163.79-48.61 196.19-144l-82.8-53.99c-32.4 79.19-72 111.59-142.19 111.59-124.2 0-214.19-95.39-214.19-266.39v-428.37h-100.8v766.75" fill="#050606"/>
            <path d="m1632.8 2465.8h529.18c-12.6 145.79-115.2 268.19-264.59 268.19-151.19 0-251.99-122.4-264.59-268.19zm-100.79-53.99c0 219.59 161.99 399.58 368.98 399.58 205.19 0 358.19-172.8 358.19-413.99h-626.38c3.6-163.79 117-298.78 293.39-298.78 118.8 0 201.59 55.79 246.59 156.59l75.6-41.39c-57.6-124.2-171-198-322.19-198-228.59 0-394.18 179.99-394.18 395.99" fill="#050606"/>
            <path d="m2491.4 2797h32.41c35.99 0 53.99 1.81 68.39 9.01v-178.2c43.2 115.2 147.59 183.6 287.99 183.6 134.99 0 221.39-68.4 244.79-194.39 39.6 122.39 151.2 194.39 295.19 194.39 161.99 0 251.99-95.4 251.99-269.99v-511.17h-100.8v498.57c0 138.59-57.59 194.39-178.19 194.39-153 0-260.99-97.19-260.99-264.59v-428.37h-100.8v498.57c0 138.59-57.59 194.39-178.19 194.39-153 0-260.99-97.19-260.99-264.59v-428.37h-100.8v766.75" fill="#050606"/>
            <path d="m4568.6 2413.6c0 178.2-122.39 311.39-280.78 311.39-158.4 0-280.79-133.19-280.79-311.39 0-176.38 122.39-311.38 280.79-311.38 158.39 0 280.78 135 280.78 311.38zm-664.17 0c0 214.19 174.59 397.79 383.39 397.79 210.59 0 383.38-183.6 383.38-397.79s-172.79-397.78-383.38-397.78c-208.8 0-383.39 183.59-383.39 397.78" fill="#050606"/>
            <path d="m4930.4 2318.2v399.58h-158.4v70.2h61.2c93.59 0 113.4 45 113.4 120.59v136.8h16.2c36 0 53.99 1.8 68.39 9.01v-257.41h313.19v-79.19h-313.19v-410.38c0-149.39 70.2-206.99 163.8-206.99 61.2 0 111.59 25.2 145.79 71.99l68.4-48.59c-41.4-68.4-120.6-108-214.19-108-160.2 0-264.59 106.2-264.59 302.39" fill="#050606"/>
            <path d="m5574.8 2465.8h529.18c-12.6 145.79-115.19 268.19-264.59 268.19-151.19 0-251.98-122.4-264.59-268.19zm-100.79-53.99c0 219.59 161.99 399.58 368.99 399.58 205.19 0 358.18-172.8 358.18-413.99h-626.38c3.61-163.79 117-298.78 293.39-298.78 118.8 0 201.59 55.79 246.59 156.59l75.6-41.39c-57.6-124.2-170.99-198-322.19-198-228.58 0-394.18 179.99-394.18 395.99" fill="#050606"/>
            <path d="m7325.1 3013.1c-101.67-103.82-240.98-149.72-381.75-125.88-208.43 35.21-348.47 203.65-348.47 419.15 0 247.96 179.98 427.94 427.94 427.94 212.48 0 381.18-136.24 419.77-339.01 26.54-139.56-16.26-278.86-117.49-382.2zm-302.28 1059.4c-436.76 0-766.13-327.43-766.13-761.6 0-287.73 98.07-492.52 367.43-648.65 101.76-58.99 330.41-135.89 249.67-358.59l-74.42-129.45c-21.52-30.91-24.08-70.87-6.66-104.26 17.45-33.39 51.7-54.15 89.37-54.15h151.66c33.15 0 64.16 16.29 82.9 43.47l440.45 637.2c200.21 288.12 234.29 426.55 231.89 610.83-5.2 436.23-334.58 765.2-766.16 765.2" fill="#205b59"/>
            <path d="m7776.4 2209.1c0 106.76-86.54 193.3-193.3 193.3s-193.3-86.54-193.3-193.3 86.54-193.3 193.3-193.3 193.3 86.54 193.3 193.3" fill="#205b59"/>
        </g>
    </g>
</svg>
