<svg width="1440" height="1024" viewBox="0 0 1440 1024" fill="none" xmlns="http://www.w3.org/2000/svg">
<path d="M839.652 0H1440V1024H1246.02C1246.77 1018.93 1247.16 1013.75 1247.16 1008.47C1247.16 950.69 1200.34 903.846 1142.59 903.846C1084.83 903.846 1038.02 950.69 1038.02 1008.47C1038.02 1013.75 1038.41 1018.93 1039.16 1024H935.524L1128.51 744.696C1236.82 588.773 1255.26 513.859 1253.96 414.122C1251.14 178.099 1073.05 0.0918274 839.652 0Z" fill="#2A5C5C"/>
<path d="M839.288 0H0V1024H720.513L758.846 957.297C796.332 853.845 699.393 803.244 645.911 775.327C637.082 770.718 629.437 766.727 623.777 763.219C480.588 674.489 425 567.895 425 412.177C425 177.27 603.094 0.0916138 839.288 0Z" fill="#2A5C5C"/>
</svg>
