<svg width="2425" height="1720" viewBox="0 0 2425 1720" fill="none" xmlns="http://www.w3.org/2000/svg">
<path d="M390.493 1454.26C390.493 1370.73 322.779 1303 239.247 1303C155.714 1303 88 1370.73 88 1454.26C88 1537.78 155.714 1605.51 239.247 1605.51C322.779 1605.51 390.493 1537.78 390.493 1454.26Z" fill="#FAF085"/>
<path fill-rule="evenodd" clip-rule="evenodd" d="M605.139 1041.09C582.732 1041.81 560.026 1040.28 537.273 1036.43C374.189 1008.87 264.614 877.084 264.614 708.458C264.614 514.45 405.436 373.628 599.458 373.628C605.146 373.628 610.793 373.753 616.398 374H1100.28C994.622 211.963 813.037 109 599.458 109C257.714 109 0 365.207 0 704.921C0 930.055 80.3985 1084.17 287.495 1212.45C295.681 1217.52 306.737 1223.29 319.507 1229.96L319.509 1229.96C396.861 1270.32 537.065 1343.48 482.849 1493.05L424.618 1594.34C407.79 1618.52 405.786 1649.78 419.412 1675.91C433.052 1702.03 459.861 1718.28 489.332 1718.28H608C633.934 1718.28 658.2 1705.53 672.876 1684.26L926.194 1317.77C899.677 1163.04 766.562 1044.71 605.139 1041.09Z" fill="#86BFB8"/>
<path fill-rule="evenodd" clip-rule="evenodd" d="M1335.01 1454C1460.48 1644.66 1611.46 1719.28 1828.36 1719.28C2168.07 1719.28 2424.28 1461.57 2424.28 1119.82C2424.28 906.245 2321.32 724.66 2159.28 619V1102.88C2159.53 1108.49 2159.65 1114.14 2159.65 1119.82C2159.65 1313.85 2018.83 1454.67 1824.82 1454.67C1817.19 1454.67 1809.64 1454.44 1802.16 1454H1335.01Z" fill="#145D5B"/>
<path d="M660 109.504C660 49.0299 610.976 0 550.5 0C490.024 0 441 49.0299 441 109.504C441 169.967 490.024 219 550.5 219C610.976 219 660 169.967 660 109.504Z" fill="white"/>
<path d="M2335 1563C2335 1527.1 2305.9 1498 2270 1498C2234.1 1498 2205 1527.1 2205 1563C2205 1598.89 2234.1 1628 2270 1628C2305.9 1628 2335 1598.89 2335 1563Z" fill="#FAF085"/>
<path d="M2424 1453.5C2424 1393.03 2374.98 1344 2314.5 1344C2254.02 1344 2205 1393.03 2205 1453.5C2205 1513.97 2254.02 1563 2314.5 1563C2374.98 1563 2424 1513.97 2424 1453.5Z" fill="#86BFB8"/>
</svg>
