<svg width="512" height="512" xmlns="http://www.w3.org/2000/svg">

 <g>
  <title>Layer 1</title>
  <metadata transform="matrix(0.25664630023203827,0,0,0.25664630023203827,0,0) " id="svg_13">image/svg+xml</metadata>

  <g stroke="null" id="svg_15">
   <g stroke="null" id="svg_9" transform="matrix(4.2686636022410624,0,0,-4.2686636022410624,-4241.527369631979,-2345.7316837081567) ">
    <g stroke="null" id="svg_10" transform="translate(0,-734.5563354492188) scale(0.10000000149011612) ">
     <path stroke="null" fill="#145d5b" fill-rule="nonzero" d="m10711.93557,1232.54284c-59.14,-60.39 -140.18,-87.09 -222.06,-73.22c-121.24,20.49 -202.7,118.46 -202.7,243.82c0,144.23 104.69,248.92 248.93,248.92c123.59,0 221.73,-79.25 244.18,-197.2c15.43,-81.17 -9.46,-162.2 -68.35,-222.32zm-175.83,616.25c-254.06,0 -445.65,-190.47 -445.65,-443.02c0,-167.37 59.77,-281.94 213.73,-377.31c42.95,-26.61 192.19,-79.05 145.23,-208.6l-43.29,-75.301c-12.51,-17.98 -14,-41.219 -3.87,-60.641c10.14,-19.418 30.07,-31.5 51.98,-31.5l88.22,0c19.28,0 37.32,9.481 48.23,25.293l256.2,370.659c116.46,167.59 136.29,248.11 134.89,355.31c-3.03,253.75 -194.62,445.11 -445.67,445.11" id="svg_12"/>
     <path stroke="null" fill="#145d5b" fill-rule="nonzero" d="m10974.46557,764.86284c0,62.101 -50.34,112.45 -112.44,112.45c-62.1,0 -112.44,-50.349 -112.44,-112.45c0,-62.09 50.34,-112.442 112.44,-112.442c62.1,0 112.44,50.352 112.44,112.442" id="svg_11"/>
    </g>
   </g>
  </g>
 </g>
</svg>